Coordinates
version=1
nRows=17
nColumns=40
inDegrees=yes

Units are S.I. units (second, meters, Newtons, ...)
Angles are in degrees.

endheader
time	pelvis_tilt	pelvis_list	pelvis_rotation	pelvis_tx	pelvis_ty	pelvis_tz	hip_flexion_r	hip_adduction_r	hip_rotation_r	knee_angle_r	knee_angle_r_beta	ankle_angle_r	subtalar_angle_r	mtp_angle_r	hip_flexion_l	hip_adduction_l	hip_rotation_l	knee_angle_l	knee_angle_l_beta	ankle_angle_l	subtalar_angle_l	mtp_angle_l	lumbar_extension	lumbar_bending	lumbar_rotation	arm_flex_r	arm_add_r	arm_rot_r	elbow_flex_r	pro_sup_r	wrist_flex_r	wrist_dev_r	arm_flex_l	arm_add_l	arm_rot_l	elbow_flex_l	pro_sup_l	wrist_flex_l	wrist_dev_l
     53.54000000	     -4.75117563	     -4.67403411	     -1.07488215	      0.89566845	      0.93208232	      0.41791464	     31.27357257	     -4.42330019	     -5.90731466	     65.85080493	     65.85080493	      2.08133991	    -18.68432088	      7.77602730	     16.52356956	     -3.89835334	     -5.06268833	     21.53757848	     21.53757848	     12.32332987	    -10.11546111	     -0.78545479	    -10.35247479	      4.62373660	      1.43136282	     14.90144860	    -11.79238925	      3.39099668	     40.10028666	     44.77664067	      0.00000000	      0.00000000	     15.18710693	    -13.49198685	      5.34233813	     38.29968892	     44.58829971	      0.00000000	      0.00000000
     53.55342857	     -4.69629366	     -4.65118813	     -1.33237608	      0.89515812	      0.93282547	      0.41716967	     31.86867974	     -4.28614435	     -5.64854578	     64.07873171	     64.07873171	      2.02293628	    -18.41795175	      7.30892884	     15.64486317	     -3.78007196	     -5.12832988	     20.95547850	     20.95547850	     12.48362792	    -10.28467032	     -0.68210340	    -10.42407683	      4.70303522	      1.78370630	     12.46344885	    -12.49335238	      3.59149235	     37.98635082	     44.85321443	      0.00000000	      0.00000000	     16.55470847	    -13.73468305	      4.84402270	     39.55583070	     44.70164726	      0.00000000	      0.00000000
     53.56685714	     -4.59258244	     -4.65025964	     -1.63433498	      0.89475713	      0.93362357	      0.41658171	     32.26096511	     -4.10520819	     -5.42755248	     62.05574936	     62.05574936	      1.93779688	    -18.12507076	      6.83091314	     14.66204032	     -3.73340220	     -5.45444893	     20.30147754	     20.30147754	     12.71849719	    -10.12779183	     -0.67887375	    -10.57506880	      4.76221055	      2.13334563	     10.10950613	    -13.13669703	      3.72366676	     35.99744701	     44.92302544	      0.00000000	      0.00000000	     17.79242044	    -14.03611165	      4.31648874	     41.09932276	     44.80507305	      0.00000000	      0.00000000
     53.58028571	     -4.51666621	     -4.65971137	     -1.89380169	      0.89425566	      0.93422572	      0.41600994	     32.58238917	     -3.92831453	     -5.26222087	     59.84508471	     59.84508471	      1.81185092	    -17.74716801	      6.27159694	     13.78533051	     -3.69501914	     -5.72998706	     19.75923413	     19.75923413	     12.95549501	     -9.93260832	     -0.72954640	    -10.68955752	      4.87321369	      2.35457022	      7.83898228	    -13.65313685	      3.81258543	     33.98177643	     44.99694945	      0.00000000	      0.00000000	     18.91053570	    -14.38888147	      3.71344529	     42.82317845	     44.91306168	      0.00000000	      0.00000000
     53.59371429	     -4.49836623	     -4.64234009	     -2.13743316	      0.89367751	      0.93456445	      0.41554585	     32.75893628	     -3.83525132	     -5.25188994	     57.22270781	     57.22270781	      0.79311152	    -17.62274731	      2.87554279	     13.03931741	     -3.64853833	     -6.06684370	     19.30131052	     19.30131052	     13.13091567	     -9.70669426	     -1.06347420	    -10.79716129	      4.91109212	      1.54923378	      7.04131482	    -13.48081795	      3.50159374	     29.81059806	     45.26193811	      0.00000000	      0.00000000	     18.52188639	    -15.29992210	      1.47229410	     46.91351687	     45.27860992	      0.00000000	      0.00000000
     53.60714286	     -4.47743729	     -4.69157174	     -2.35070134	      0.89305556	      0.93489267	      0.41520759	     32.90166555	     -3.60507023	     -5.23391616	     54.55192753	     54.55192753	      0.86337824	    -17.08476489	      2.91247458	     12.30923878	     -3.65158221	     -6.24517075	     18.85681024	     18.85681024	     13.38737511	     -9.58282248	     -1.05801037	    -10.88158946	      5.05789843	      1.75162280	      4.75696916	    -13.99815470	      3.52990082	     28.49429290	     45.30844784	      0.00000000	      0.00000000	     19.69482422	    -15.57975925	      0.94469839	     48.19733994	     45.36790386	      0.00000000	      0.00000000
     53.62057143	     -4.58917277	     -4.72564786	     -2.51904760	      0.89233292	      0.93483363	      0.41499728	     33.08487044	     -3.40957511	     -5.32501249	     51.67062456	     51.67062456	      1.04160488	    -16.42287348	      2.88772281	     11.80103527	     -3.65276118	     -6.39060378	     18.52786462	     18.52786462	     13.65288177	     -9.47120707	     -1.11462649	    -10.80217435	      5.21733760	      1.68837857	      2.56961374	    -14.34925126	      3.51920179	     27.40263239	     45.34433189	      0.00000000	      0.00000000	     20.68775272	    -16.10353362	      0.42291846	     49.40830046	     45.44722659	      0.00000000	      0.00000000
     53.63400000	     -4.61090750	     -4.70382624	     -2.77991400	      0.89168328	      0.93481622	      0.41509008	     32.95765631	     -3.22108017	     -5.43161782	     48.33212275	     48.33212275	      0.37867141	    -15.93531882	      0.43951422	     11.18431449	     -3.65247427	     -6.79689017	     18.21145715	     18.21145715	     13.95410095	     -9.07864598	     -1.30314386	    -10.95602803	      5.18236406	      1.48047875	      0.69389317	    -14.57425820	      2.76048416	     26.13607048	     45.51664022	      0.00000000	      0.00000000	     20.43190508	    -16.50657143	     -1.94305690	     53.81294830	     45.79081412	      0.00000000	      0.00000000
     53.64742857	     -4.69482743	     -4.74973193	     -2.96893124	      0.89104077	      0.93466528	      0.41526810	     32.80357847	     -2.97455864	     -5.70844216	     44.89411850	     44.89411850	      0.61947420	    -14.84490508	      0.38617022	     10.66426973	     -3.69058680	     -6.94303195	     17.92264326	     17.92264326	     14.21858441	     -8.99359253	     -1.37220107	    -10.93868366	      5.28680511	      1.59920497	     -1.47524094	    -14.90362836	      2.69662649	     25.22727865	     45.55370165	      0.00000000	      0.00000000	     21.37354826	    -16.82597912	     -2.49859980	     55.21824374	     45.87747507	      0.00000000	      0.00000000
     53.66085714	     -4.85586260	     -4.73116609	     -3.18729041	      0.89045149	      0.93426008	      0.41568343	     32.57774803	     -2.75035010	     -6.03685155	     41.18247386	     41.18247386	      0.45159268	    -13.73027390	     -0.90058732	     10.22862443	     -3.70510627	     -7.24895640	     17.65195856	     17.65195856	     14.50443362	     -8.68457567	     -1.60248241	    -10.88851783	      5.28839161	      1.43890559	     -3.78189527	    -15.11900834	      2.01437127	     25.34967400	     45.62890936	      0.00000000	      0.00000000	     21.35724037	    -17.27197363	     -4.07954727	     58.64114039	     46.10648147	      0.00000000	      0.00000000
     53.67428571	     -4.95194139	     -4.72504588	     -3.40511175	      0.88997503	      0.93391823	      0.41627646	     32.15861243	     -2.48689660	     -6.47639131	     37.37446583	     37.37446583	      0.73669837	    -12.09185473	     -0.95150282	      9.70023894	     -3.71422767	     -7.45165760	     17.35459605	     17.35459605	     14.76576172	     -8.56794865	     -1.71855098	    -10.86024701	      5.31119192	      1.57015291	     -5.93733384	    -15.30834848	      1.85564242	     24.80493069	     45.65867270	      0.00000000	      0.00000000	     22.08469644	    -17.60084924	     -4.75332905	     60.34538596	     46.20606735	      0.00000000	      0.00000000
     53.68771429	     -5.11331807	     -4.78729908	     -3.60588098	      0.88961251	      0.93344771	      0.41708495	     31.63706114	     -2.10371090	     -7.03655752	     33.41350311	     33.41350311	      0.98210348	    -10.25082823	     -0.78311754	      9.21938779	     -3.81169565	     -7.59990600	     17.03062623	     17.03062623	     15.02681975	     -8.39626519	     -1.86730969	    -10.77819602	      5.41961252	      1.60742570	     -8.07552580	    -15.48610658	      1.63892569	     24.52124650	     45.67696362	      0.00000000	      0.00000000	     22.54771433	    -17.88161956	     -5.41977641	     62.18575820	     46.29983681	      0.00000000	      0.00000000
     53.70114286	     -5.22678113	     -4.69741899	     -3.84709991	      0.88948326	      0.93285006	      0.41805498	     31.02974820	     -1.82923314	     -7.62466027	     29.58109295	     29.58109295	      1.23456595	     -8.20813030	     -0.46267694	      8.66847071	     -3.75715059	     -7.90635714	     16.71234392	     16.71234392	     15.30694677	     -8.18565942	     -2.08565964	    -10.65929568	      5.32061580	      1.70822440	    -10.24627923	    -15.54355989	      1.32867723	     24.55016006	     45.68788435	      0.00000000	      0.00000000	     22.89537430	    -18.23099203	     -6.26222594	     64.44254956	     46.41258771	      0.00000000	      0.00000000
     53.71457143	     -5.38027019	     -4.50073875	     -4.08466857	      0.88954774	      0.93195988	      0.41910631	     30.51221173	     -1.69728050	     -8.38512262	     26.11882903	     26.11882903	      1.56398839	     -5.70389123	      0.29067991	      8.10356021	     -3.59835888	     -8.25799573	     16.30895117	     16.30895117	     15.63425060	     -7.69391347	     -2.59870299	    -10.58287212	      5.10845637	      1.48978833	    -12.61973453	    -15.65419823	      0.34803436	     26.03992477	     45.69872311	      0.00000000	      0.00000000	     22.23315096	    -18.61483776	     -8.03779413	     68.55656208	     46.63871330	      0.00000000	      0.00000000
     53.72800000	     -5.49376697	     -4.43956210	     -4.34310133	      0.88978684	      0.93116294	      0.42066430	     29.78258289	     -1.22394627	     -8.84601034	     22.67813487	     22.67813487	      1.71792860	     -3.98835780	      1.14098219	      7.54620804	     -3.60575714	     -8.58321691	     16.02969827	     16.02969827	     15.83516983	     -7.66472469	     -2.73736255	    -10.36950796	      4.98546617	      1.49004551	    -14.30813146	    -15.44529577	      0.20164764	     25.89238180	     45.70505702	      0.00000000	      0.00000000	     22.67896393	    -18.98216213	     -8.62614080	     69.97221341	     46.71558506	      0.00000000	      0.00000000
     53.74142857	     -5.47782206	     -4.26221118	     -4.59056956	      0.89030701	      0.93034372	      0.42214139	     29.19591522	     -1.05287640	     -9.74403383	     20.23627367	     20.23627367	      2.76876521	     -1.37373895	      4.22180101	      6.73863771	     -3.47865179	     -9.05998564	     15.57563810	     15.57563810	     16.01006271	     -7.20310779	     -3.41203542	    -10.46569159	      4.76198701	      1.10680664	    -16.42477959	    -15.43861385	     -1.07898074	     27.76133473	     45.73355840	      0.00000000	      0.00000000	     21.74679296	    -19.31568594	    -10.81935299	     74.25909256	     47.00389440	      0.00000000	      0.00000000
     53.75485714	     -5.48063377	     -4.11810793	     -4.82265492	      0.89107723	      0.92944116	      0.42390627	     28.50068800	     -0.73859402	    -10.36777383	     17.91368256	     17.91368256	      2.89532226	      0.25980931	      5.19016853	      5.94333742	     -3.38118937	     -9.36537808	     15.14923343	     15.14923343	     16.30891531	     -6.90637937	     -3.60344247	    -10.31085114	      4.54482809	      1.36310439	    -18.01370694	    -15.21129551	     -1.20235921	     27.54550808	     45.74358476	      0.00000000	      0.00000000	     22.09187815	    -19.46028913	    -11.31956406	     75.78349799	     47.08065588	      0.00000000	      0.00000000
